<svg xlink="http://www.w3.org/1999/xlink" viewBox="0 0 5000 5000" xmlns="http://www.w3.org/2000/svg" style="transform: scale(1);"><defs><filter id="goo"><feGaussianBlur in="SourceGraphic" stdDeviation="0" result="blur"></feGaussianBlur><feColorMatrix in="blur" type="matrix" values="1 0 0 0 0 0 1 0 0 0 0 0 1 0 0 0 0 0 19 -9" result="good"></feColorMatrix><feComposite in="SourceGraphic" in2="goo" operator="atop"></feComposite></filter><path d="M260,304C235,307 212,295 202,276C191,254 195,228 210,212C228,195 254,191 273,200C295,212 307,235 305,257C300,282 282,300 260,304z" id="P0"></path><path d="M265,296C244,301 222,293 211,278C200,260 200,237 211,222C225,205 247,199 265,204C285,213 298,231 298,250C296,272 283,290 265,296z" id="P1"></path><path d="M278,302C254,313 227,309 210,293C191,273 187,246 197,225C210,201 234,189 257,191C284,197 303,216 308,239C311,266 299,290 278,302z" id="P2"></path></defs><rect id="RECT" width="5000" height="5000" fill="#FFF5E8"></rect><g id="group" fill="#FFEDD9" filter=""><use x="-40" y="46" href="#P0"></use><use x="113" y="477" href="#P0"></use><use x="89" y="1355" href="#P1"></use><use x="55" y="1900" href="#P2"></use><use x="-158" y="2821" href="#P1"></use><use x="184" y="3063" href="#P0"></use><use x="81" y="3473" href="#P0"></use><use x="271" y="4666" href="#P0"></use><use x="164" y="5088" href="#P1"></use><use x="886" y="288" href="#P0"></use><use x="760" y="628" href="#P1"></use><use x="859" y="1123" href="#P1"></use><use x="916" y="1828" href="#P1"></use><use x="1085" y="2761" href="#P0"></use><use x="852" y="2906" href="#P1"></use><use x="900" y="3856" href="#P0"></use><use x="708" y="4503" href="#P0"></use><use x="875" y="5137" href="#P2"></use><use x="1800" y="154" href="#P2"></use><use x="1154" y="419" href="#P2"></use><use x="1348" y="1253" href="#P2"></use><use x="1132" y="1808" href="#P1"></use><use x="1431" y="2363" href="#P1"></use><use x="1533" y="3214" href="#P2"></use><use x="1575" y="3901" href="#P0"></use><use x="1155" y="4420" href="#P2"></use><use x="1787" y="4727" href="#P0"></use><use x="2320" y="-191" href="#P1"></use><use x="1896" y="390" href="#P1"></use><use x="2405" y="1280" href="#P2"></use><use x="2377" y="1966" href="#P1"></use><use x="2335" y="2508" href="#P2"></use><use x="2306" y="2938" href="#P0"></use><use x="2261" y="3834" href="#P0"></use><use x="2088" y="4091" href="#P0"></use><use x="1867" y="5068" href="#P0"></use><use x="2566" y="88" href="#P2"></use><use x="2519" y="612" href="#P2"></use><use x="2719" y="1410" href="#P1"></use><use x="2807" y="1764" href="#P1"></use><use x="3167" y="2680" href="#P2"></use><use x="2740" y="3030" href="#P0"></use><use x="2807" y="4030" href="#P2"></use><use x="2568" y="4115" href="#P2"></use><use x="2535" y="4729" href="#P1"></use><use x="3605" y="-90" href="#P1"></use><use x="3559" y="476" href="#P1"></use><use x="3312" y="1374" href="#P2"></use><use x="3306" y="1677" href="#P2"></use><use x="3627" y="2642" href="#P0"></use><use x="3796" y="3333" href="#P2"></use><use x="3624" y="3470" href="#P2"></use><use x="3837" y="4192" href="#P2"></use><use x="3204" y="5242" href="#P0"></use><use x="3881" y="111" href="#P1"></use><use x="4081" y="461" href="#P0"></use><use x="4393" y="1440" href="#P2"></use><use x="3932" y="2105" href="#P0"></use><use x="4443" y="2380" href="#P2"></use><use x="4331" y="3423" href="#P1"></use><use x="4356" y="3695" href="#P1"></use><use x="4499" y="4508" href="#P0"></use><use x="4086" y="5199" href="#P2"></use><use x="4974" y="-36" href="#P2"></use><use x="5023" y="666" href="#P1"></use><use x="4864" y="1240" href="#P1"></use><use x="4753" y="2149" href="#P2"></use><use x="5170" y="2246" href="#P1"></use><use x="4969" y="2931" href="#P2"></use><use x="4828" y="3755" href="#P1"></use><use x="4958" y="4206" href="#P0"></use><use x="5016" y="5233" href="#P1"></use></g></svg>